HIERARCHY
ROOT hip
{
	OFFSET 0.000000 0.000000 0.000000
	CHANNELS 6 Xposition Yposition Zposition Xrotation Zrotation Yrotation 
	JOINT abdomen
	{
		OFFSET 0.000000 3.422050 0.000000
		CHANNELS 3 Xrotation Zrotation Yrotation 
		JOINT chest
		{
			OFFSET 0.000000 8.486693 -0.684411
			CHANNELS 3 Xrotation Zrotation Yrotation 
			JOINT neck
			{
				OFFSET 0.000000 10.266162 -0.273764
				CHANNELS 3 Xrotation Zrotation Yrotation 
				JOINT head
				{
					OFFSET 0.000000 3.148285 0.000000
					CHANNELS 3 Xrotation Zrotation Yrotation 
					End Site
					{
						OFFSET 0.000000 3.148289 0.000000
					}
				}
			}
			JOINT lCollar
			{
				OFFSET 3.422053 6.707223 -0.821293
				CHANNELS 3 Yrotation Zrotation Xrotation 
				JOINT lShldr
				{
					OFFSET 3.285171 0.000000 0.000000
					CHANNELS 3 Zrotation Yrotation Xrotation 
					JOINT lForeArm
					{
						OFFSET 10.129278 0.000000 0.000000
						CHANNELS 3 Yrotation Zrotation Xrotation 
						JOINT lHand
						{
							OFFSET 8.486692 0.000000 0.000000
							CHANNELS 3 Zrotation Yrotation Xrotation 
							End Site
							{
								OFFSET 4.106464 0.000000 0.000000
							}
						}
					}
				}
			}
			JOINT rCollar
			{
				OFFSET -3.558935 6.707223 -0.821293
				CHANNELS 3 Yrotation Zrotation Xrotation 
				JOINT rShldr
				{
					OFFSET -3.148289 0.000000 0.000000
					CHANNELS 3 Zrotation Yrotation Xrotation 
					JOINT rForeArm
					{
						OFFSET -10.266159 0.000000 0.000000
						CHANNELS 3 Yrotation Zrotation Xrotation 
						JOINT rHand
						{
							OFFSET -8.349810 0.000000 0.000000
							CHANNELS 3 Zrotation Yrotation Xrotation 
							End Site
							{
								OFFSET -4.106464 0.000000 0.000000
							}
						}
					}
				}
			}
		}
	}
	JOINT lThigh
	{
		OFFSET 5.338403 -1.642589 1.368821
		CHANNELS 3 Xrotation Zrotation Yrotation 
		JOINT lShin
		{
			OFFSET -2.053232 -20.121670 0.000000
			CHANNELS 3 Xrotation Zrotation Yrotation 
			JOINT lFoot
			{
				OFFSET 0.000000 -19.300380 -1.231939
				CHANNELS 3 Xrotation Yrotation Zrotation 
				End Site
				{
					OFFSET 0.000000 -2.463878 4.653993
				}
			}
		}
	}
	JOINT rThigh
	{
		OFFSET -5.338403 -1.642589 1.368821
		CHANNELS 3 Xrotation Zrotation Yrotation 
		JOINT rShin
		{
			OFFSET 2.053232 -20.121670 0.000000
			CHANNELS 3 Xrotation Zrotation Yrotation 
			JOINT rFoot
			{
				OFFSET 0.000000 -19.300380 -1.231939
				CHANNELS 3 Xrotation Yrotation Zrotation 
				End Site
				{
					OFFSET 0.000000 -2.463878 4.653993
				}
			}
		}
	}
}
MOTION
Frames: 14
Frame Time: 0.033264
0.000000 43.528500 0.000000 0.000000 0.000000 0.000000 0.000000 0.000000 0.000000 0.000000 0.000000 0.000000 0.000000 0.000000 0.000000 0.000000 0.000000 0.000000 0.000000 0.000000 0.000000 0.000000 0.000000 0.000000 0.000000 0.000000 0.000000 0.000000 0.000000 0.000000 0.000000 0.000000 0.000000 0.000000 0.000000 0.000000 0.000000 0.000000 0.000000 0.000000 0.000000 0.000000 0.000000 0.000000 0.000000 0.000000 0.000000 0.000000 0.000000 0.000000 0.000000 0.000000 0.000000 0.000000 0.000000 0.000000 0.000000 0.000000 0.000000 0.000000 
19.995886 5.305927 28.340256 78.999115 0.000000 0.000000 27.803188 -0.182168 -0.100928 -24.432837 -1.288064 -1.114919 1.994747 -0.003125 -44.001713 -15.342298 -0.056077 -26.001081 -5.645473 -7.862010 -0.274195 -27.016382 -6.566990 -46.304466 -55.979511 35.942768 16.667767 22.155632 -27.960508 -27.339727 -15.351151 50.727669 1.144880 32.033611 16.309557 -41.781536 45.634418 -37.539402 8.005455 -3.404200 32.309174 -6.865849 14.392679 4.213387 46.821777 -2.157261 -4.792050 19.889326 47.168636 -1.674588 3.049581 8.598092 -6.968696 -43.535732 11.928473 6.720882 -18.989214 49.685501 -5.149123 -0.876193 
19.995886 5.305927 28.340256 78.665878 0.000000 -0.000000 26.784883 -0.216307 -0.113854 -22.102188 -1.335111 -1.113590 1.384360 -0.003015 -44.001690 -15.531193 -0.319084 -26.562077 -5.736340 -7.489401 0.733946 -26.728495 -6.852184 -46.348209 -55.958878 35.939808 16.655291 23.721762 -26.765100 -28.393642 -12.864592 50.594410 -1.144870 31.882692 15.364186 -41.439056 45.195515 -37.177883 7.819011 -4.827321 32.034073 -8.040410 14.751639 4.339707 47.018154 -1.957162 -4.968928 19.878683 47.072052 -1.782642 3.218237 9.210593 -7.052426 -44.717667 11.928473 6.720882 -18.989214 49.603630 -4.481822 -1.883557 
19.995886 5.305927 28.340256 78.332596 0.000000 -0.000000 25.765289 -0.250713 -0.126187 -19.755455 -1.382496 -1.114187 0.773696 -0.002904 -44.001686 -15.717605 -0.584063 -27.122515 -5.833869 -7.117894 1.743314 -26.440145 -7.137210 -46.393417 -55.938244 35.936840 16.642817 25.253662 -25.539537 -29.404367 -10.393541 50.398239 -3.418633 31.726400 14.418476 -41.095058 44.760025 -36.815128 7.636861 -6.242031 31.733824 -9.205346 15.111158 4.464819 47.215370 -1.756959 -5.145783 19.867407 46.975780 -1.890987 3.386731 9.826023 -7.123722 -45.902981 11.928473 6.720882 -18.989214 49.533493 -3.811996 -2.890909 
19.995886 5.305927 28.340256 77.999275 0.000000 -0.000000 24.744560 -0.285372 -0.137918 -17.394466 -1.430104 -1.116746 0.162788 -0.002792 -44.001678 -15.901505 -0.850971 -27.682356 -5.938036 -6.747679 2.753814 -26.151346 -7.422063 -46.440136 -55.917595 35.933865 16.630339 26.751936 -24.285654 -30.372297 -7.945860 50.139885 -5.668541 31.564718 13.472610 -40.749432 44.327908 -36.451187 7.458951 -7.647130 31.408720 -10.359449 15.471241 4.588719 47.413448 -1.556649 -5.322611 19.855511 46.879807 -1.999620 3.555062 10.443961 -7.182455 -47.091209 11.928473 6.720883 -18.989216 49.475132 -3.139992 -3.898300 
19.995886 5.305927 28.340256 77.665901 0.000000 -0.000000 23.722858 -0.320269 -0.149040 -15.021106 -1.477813 -1.121293 -0.448328 -0.002681 -44.001663 -16.082882 -1.119767 -28.241613 -6.048802 -6.378941 3.765347 -25.862070 -7.706714 -46.488316 -55.896965 35.930889 16.617868 28.217300 -23.005310 -31.297922 -5.528962 49.820568 -7.887193 31.397652 12.526788 -40.402039 43.899094 -36.086090 7.285231 -9.041485 31.059153 -11.501582 15.831873 4.711394 47.612385 -1.356230 -5.499408 19.842989 46.784161 -2.108539 3.723231 11.063988 -7.228514 -48.281921 11.928473 6.720882 -18.989214 49.428562 -2.466161 -4.905776 
19.995886 5.305927 28.340256 77.332504 0.000000 -0.000000 22.700340 -0.355386 -0.159547 -12.637325 -1.525499 -1.127846 -1.059618 -0.002570 -44.001667 -16.261694 -1.390405 -28.800251 -6.166132 -6.011869 4.777819 -25.572319 -7.991157 -46.537994 -55.876335 35.927917 16.605398 29.650572 -21.700373 -32.181824 -3.149637 49.441723 -10.067780 31.225166 11.581197 -40.052765 43.473541 -35.719887 7.115647 -10.424024 30.685520 -12.630662 16.193041 4.832833 47.812141 -1.155701 -5.676169 19.829838 46.688797 -2.217741 3.891235 11.685671 -7.261814 -49.474644 11.928471 6.720882 -18.989212 49.393864 -1.790861 -5.913394 
19.995886 5.305927 28.340256 76.999107 0.000000 -0.000000 21.677176 -0.390708 -0.169431 -10.245131 -1.573038 -1.136410 -1.671048 -0.002458 -44.001663 -16.437925 -1.662843 -29.358253 -6.289976 -5.646648 5.791123 -25.282085 -8.275375 -46.589157 -55.855698 35.924927 16.592928 31.052649 -20.372705 -33.024685 -0.813999 49.005188 -12.204197 31.047274 10.636042 -39.701508 43.051189 -35.352619 6.950151 -11.793743 30.288311 -13.745683 16.554731 4.953027 48.012714 -0.955060 -5.852891 19.816059 46.593758 -2.327226 4.059075 12.308569 -7.282278 -50.668907 11.928473 6.720882 -18.989214 49.371037 -1.114449 -6.921205 
19.995886 5.305927 28.340256 76.665672 0.000000 -0.000001 20.653513 -0.426217 -0.178688 -7.846569 -1.620300 -1.146983 -2.282582 -0.002347 -44.001659 -16.611559 -1.937036 -29.915604 -6.420285 -5.283465 6.805160 -24.991364 -8.559357 -46.641830 -55.835068 35.921944 16.580460 32.424484 -19.024172 -33.827206 1.472610 48.513039 -14.291104 30.863935 9.691509 -39.348118 42.631985 -34.984322 6.788689 -13.149714 29.868029 -14.845707 16.916941 5.071967 48.214108 -0.754305 -6.029570 19.801655 46.499023 -2.436992 4.226750 12.932248 -7.289859 -51.864262 11.928473 6.720883 -18.989216 49.360115 -0.437284 -7.929264 
19.995886 5.305927 28.340256 76.332222 0.000000 -0.000001 19.629534 -0.461898 -0.187311 -5.443720 -1.667162 -1.159549 -2.894186 -0.002236 -44.001652 -16.782560 -2.212937 -30.472284 -6.557002 -4.922503 7.819820 -24.700144 -8.843083 -46.696003 -55.814430 35.918945 16.567993 33.767094 -17.656612 -34.590160 3.705656 47.967567 -16.323959 30.675127 8.747806 -38.992516 42.215900 -34.615059 6.631219 -14.491079 29.425224 -15.929870 17.279654 5.189638 48.416298 -0.553435 -6.206201 19.786627 46.404621 -2.547035 4.394261 13.556261 -7.284527 -53.060219 11.928473 6.720883 -18.989216 49.361095 0.240274 -8.937625 
19.995886 5.305927 28.340256 75.998787 0.000001 -0.000001 18.605383 -0.497733 -0.195296 -3.038683 -1.713496 -1.174084 -3.505825 -0.002124 -44.001659 -16.950920 -2.490504 -31.028296 -6.700068 -4.563944 8.835004 -24.408409 -9.126539 -46.751667 -55.793800 35.915951 16.555529 35.081535 -16.271872 -35.314350 5.881415 47.371281 -18.299049 30.480839 7.805127 -38.634571 41.802853 -34.244843 6.477682 -15.817059 28.960487 -16.997387 17.642855 5.306036 48.619270 -0.352449 -6.382782 19.770971 46.310516 -2.657355 4.561605 14.180165 -7.266274 -54.256317 11.928473 6.720883 -18.989214 49.374012 0.917861 -9.946347 
19.995886 5.305927 28.340256 75.665344 0.000001 -0.000001 17.581238 -0.533705 -0.202640 -0.633575 -1.759179 -1.190552 -4.117463 -0.002012 -44.001648 -17.116606 -2.769688 -31.583605 -6.849411 -4.207968 9.850595 -24.116167 -9.409714 -46.808853 -55.773174 35.912952 16.543066 36.368904 -14.871762 -36.000610 8.354829 47.253674 -20.575773 30.281040 6.863672 -38.274158 41.392803 -33.873730 6.328036 -17.126947 28.474442 -18.047546 18.006538 5.421150 48.823017 -0.151343 -6.559306 19.754681 46.216732 -2.767948 4.728784 14.803514 -7.235104 -55.452076 11.928473 6.720882 -18.989212 49.398876 1.595117 -10.955487 
19.995886 5.305927 28.340256 75.331894 0.000001 -0.000001 16.557251 -0.569796 -0.209339 1.769485 -1.804092 -1.208906 -4.729066 -0.001901 -44.001656 -17.279610 -3.050444 -32.138203 -7.004960 -3.854752 10.866481 -23.823400 -9.692587 -46.867538 -55.752560 35.909954 16.530611 37.630291 -13.458084 -36.649765 10.816413 47.069401 -22.840143 30.075684 5.923640 -37.911167 40.985710 -33.501762 6.182229 -18.420113 27.967728 -19.079704 18.370691 5.534967 49.027531 0.049884 -6.735772 19.737766 46.123264 -2.878813 4.895795 15.425868 -7.191055 -56.647030 11.928472 6.720882 -18.989212 49.435665 2.271676 -11.965092 
19.995886 5.305927 28.340256 74.998466 0.000001 -0.000001 15.533588 -0.605990 -0.215389 4.168396 -1.848120 -1.229092 -5.340602 -0.001790 -44.001667 -17.439909 -3.332726 -32.692085 -7.166638 -3.504471 11.882554 -23.530102 -9.975146 -46.927746 -55.731934 35.906952 16.518150 38.866821 -12.032582 -37.262661 13.258311 46.819149 -25.084299 29.864742 4.985230 -37.545486 40.581520 -33.128975 6.040216 -19.696009 27.441038 -20.093319 18.735304 5.647486 49.232796 0.251233 -6.912171 19.720217 46.030102 -2.989948 5.062638 16.046778 -7.134172 -57.840694 11.928473 6.720882 -18.989214 49.484383 2.947178 -12.975223 
